<svg width="420" height="320" viewBox="0 0 420 320" fill="none" xmlns="http://www.w3.org/2000/svg">
  <defs>
    <linearGradient id="blogGrad" x1="0" y1="0" x2="1" y2="1">
      <stop offset="0%" stop-color="#28c76f"/>
      <stop offset="100%" stop-color="#7367f0"/>
    </linearGradient>
    <filter id="shadowBlog" x="-20%" y="-20%" width="140%" height="140%">
      <feDropShadow dx="0" dy="10" stdDeviation="14" flood-color="#141922" flood-opacity="0.15"/>
    </filter>
  </defs>
  <rect width="420" height="320" rx="36" fill="#f4f8ff"/>
  <g filter="url(#shadowBlog)">
    <rect x="40" y="48" width="340" height="224" rx="28" fill="#ffffff"/>
  </g>
  <rect x="68" y="76" width="140" height="14" rx="7" fill="#28c76f" opacity="0.6"/>
  <rect x="68" y="106" width="240" height="10" rx="5" fill="#c7ffe2"/>
  <rect x="68" y="126" width="200" height="10" rx="5" fill="#e7f8ff"/>
  <rect x="68" y="146" width="176" height="10" rx="5" fill="#e7f8ff"/>
  <rect x="68" y="174" width="124" height="80" rx="18" fill="#f5f6ff"/>
  <path d="M88 232L116 194L140 214L168 180" stroke="#28c76f" stroke-width="5" stroke-linecap="round" stroke-linejoin="round"/>
  <circle cx="116" cy="194" r="8" fill="#28c76f"/>
  <circle cx="140" cy="214" r="8" fill="#28c76f"/>
  <circle cx="168" cy="180" r="8" fill="#28c76f"/>
  <rect x="206" y="174" width="132" height="80" rx="20" fill="#7367f0" opacity="0.12"/>
  <rect x="226" y="192" width="92" height="12" rx="6" fill="#7367f0" opacity="0.45"/>
  <rect x="226" y="212" width="112" height="10" rx="5" fill="#a6abf7"/>
  <rect x="226" y="230" width="76" height="10" rx="5" fill="#d5d8ff"/>
  <circle cx="330" cy="116" r="32" fill="url(#blogGrad)" opacity="0.3"/>
  <circle cx="292" cy="88" r="12" fill="#28c76f" opacity="0.4"/>
  <circle cx="322" cy="64" r="16" fill="#7367f0" opacity="0.35"/>
  <path d="M308 240C328 240 344 258 344 280H272C272 258 288 240 308 240Z" fill="url(#blogGrad)" opacity="0.18"/>
</svg>
