<svg width="420" height="320" viewBox="0 0 420 320" fill="none" xmlns="http://www.w3.org/2000/svg">
  <defs>
    <linearGradient id="wireframeGrad" x1="0" y1="0" x2="1" y2="1">
      <stop offset="0%" stop-color="#c7cbff"/>
      <stop offset="100%" stop-color="#f5f6ff"/>
    </linearGradient>
  </defs>
  <rect width="420" height="320" rx="24" fill="url(#wireframeGrad)"/>
  <rect x="24" y="32" width="372" height="256" rx="20" fill="#ffffff" stroke="#e1e5f6" stroke-width="2"/>
  <rect x="48" y="64" width="160" height="12" rx="6" fill="#7367f0" opacity="0.45"/>
  <rect x="48" y="88" width="240" height="8" rx="4" fill="#a6abf7" opacity="0.6"/>
  <rect x="48" y="104" width="200" height="8" rx="4" fill="#d4d7fb"/>
  <rect x="260" y="64" width="100" height="64" rx="16" fill="#f4f2ff"/>
  <path d="M276 108L304 80L328 96L348 72" stroke="#7367f0" stroke-width="5" stroke-linecap="round" stroke-linejoin="round"/>
  <circle cx="304" cy="80" r="7" fill="#7367f0"/>
  <circle cx="328" cy="96" r="7" fill="#7367f0"/>
  <circle cx="348" cy="72" r="7" fill="#7367f0"/>
  <rect x="48" y="140" width="324" height="60" rx="14" fill="#f7f8ff"/>
  <rect x="64" y="156" width="36" height="36" rx="12" fill="#7367f0" opacity="0.18"/>
  <rect x="110" y="156" width="112" height="12" rx="6" fill="#7367f0" opacity="0.45"/>
  <rect x="110" y="176" width="180" height="8" rx="4" fill="#c7cbff"/>
  <rect x="48" y="220" width="324" height="44" rx="14" fill="#f0f2ff"/>
  <rect x="64" y="236" width="150" height="12" rx="6" fill="#7367f0" opacity="0.6"/>
  <rect x="222" y="236" width="58" height="12" rx="6" fill="#d4d7fb"/>
  <rect x="292" y="232" width="64" height="20" rx="10" fill="#7367f0" opacity="0.9"/>
  <rect x="48" y="280" width="120" height="12" rx="6" fill="#c7cbff"/>
  <rect x="180" y="280" width="96" height="12" rx="6" fill="#e1e5f6"/>
  <rect x="288" y="280" width="84" height="12" rx="6" fill="#e1e5f6"/>
</svg>
