<svg width="420" height="300" viewBox="0 0 420 300" fill="none" xmlns="http://www.w3.org/2000/svg">
  <defs>
    <linearGradient id="supportBg" x1="0" y1="0" x2="1" y2="1">
      <stop offset="0%" stop-color="#7367f0"/>
      <stop offset="100%" stop-color="#28c76f"/>
    </linearGradient>
  </defs>
  <rect width="420" height="300" rx="32" fill="#f3f5ff"/>
  <rect x="40" y="48" width="340" height="204" rx="28" fill="#ffffff" stroke="#e6e9ff" stroke-width="2"/>
  <circle cx="146" cy="150" r="52" fill="url(#supportBg)" opacity="0.25"/>
  <circle cx="210" cy="126" r="46" fill="url(#supportBg)" opacity="0.35"/>
  <circle cx="272" cy="162" r="52" fill="url(#supportBg)" opacity="0.2"/>
  <circle cx="146" cy="146" r="34" fill="#ffffff"/>
  <circle cx="210" cy="120" r="34" fill="#ffffff"/>
  <circle cx="272" cy="152" r="34" fill="#ffffff"/>
  <path d="M118 198C120 184 132 174 146 174C160 174 172 184 174 198" stroke="#d6d9ff" stroke-width="8" stroke-linecap="round"/>
  <path d="M182 190C184 176 196 166 210 166C224 166 236 176 238 190" stroke="#d6d9ff" stroke-width="8" stroke-linecap="round"/>
  <path d="M244 206C246 190 258 180 272 180C286 180 298 190 300 206" stroke="#d6d9ff" stroke-width="8" stroke-linecap="round"/>
  <rect x="78" y="216" width="264" height="20" rx="10" fill="#eef0ff"/>
  <rect x="124" y="232" width="172" height="12" rx="6" fill="#d6d9ff"/>
  <circle cx="332" cy="92" r="20" fill="#7367f0" opacity="0.12"/>
  <circle cx="96" cy="94" r="14" fill="#28c76f" opacity="0.12"/>
  <path d="M332 92C332 89.7909 333.791 88 336 88H356C358.209 88 360 89.7909 360 92C360 94.2091 358.209 96 356 96H336C333.791 96 332 94.2091 332 92Z" fill="#7367f0" opacity="0.4"/>
  <path d="M90 94C90 91.7909 91.7909 90 94 90H110C112.209 90 114 91.7909 114 94C114 96.2091 112.209 98 110 98H94C91.7909 98 90 96.2091 90 94Z" fill="#28c76f" opacity="0.4"/>
</svg>
