<svg width="560" height="320" viewBox="0 0 560 320" fill="none" xmlns="http://www.w3.org/2000/svg">
  <defs>
    <linearGradient id="chartFill" x1="0" y1="0" x2="0" y2="1">
      <stop offset="0%" stop-color="#7367f0" stop-opacity="0.42"/>
      <stop offset="100%" stop-color="#7367f0" stop-opacity="0"/>
    </linearGradient>
    <linearGradient id="chartLine" x1="0" y1="0" x2="1" y2="0">
      <stop offset="0%" stop-color="#7367f0"/>
      <stop offset="100%" stop-color="#28c76f"/>
    </linearGradient>
  </defs>
  <rect width="560" height="320" rx="24" fill="#ffffff"/>
  <rect x="32" y="32" width="496" height="256" rx="20" fill="#f8f9ff" stroke="#e8ebff" stroke-width="2"/>
  <g stroke="#eceeff" stroke-dasharray="4 6" stroke-width="2">
    <path d="M72 244H520"/>
    <path d="M72 212H520"/>
    <path d="M72 180H520"/>
    <path d="M72 148H520"/>
    <path d="M72 116H520"/>
  </g>
  <path d="M72 228C112 204 136 186 176 188C216 190 240 226 280 220C320 214 344 166 384 164C424 162 448 204 488 188C512 178 520 170 520 170V244H72V228Z" fill="url(#chartFill)"/>
  <path d="M72 228C112 204 136 186 176 188C216 190 240 226 280 220C320 214 344 166 384 164C424 162 448 204 488 188" stroke="url(#chartLine)" stroke-width="6" stroke-linecap="round" stroke-linejoin="round"/>
  <circle cx="176" cy="188" r="7" fill="#7367f0"/>
  <circle cx="280" cy="220" r="7" fill="#8d7cf7"/>
  <circle cx="384" cy="164" r="7" fill="#28c76f"/>
  <circle cx="488" cy="188" r="7" fill="#28c76f"/>
  <rect x="88" y="64" width="120" height="32" rx="16" fill="#ffffff" stroke="#e1e5ff" stroke-width="2"/>
  <circle cx="108" cy="80" r="8" fill="#7367f0"/>
  <text x="128" y="86" fill="#495057" font-size="14" font-family="Inter, Arial, sans-serif">MRR Real</text>
  <rect x="260" y="64" width="140" height="32" rx="16" fill="#ffffff" stroke="#e1e5ff" stroke-width="2"/>
  <circle cx="280" cy="80" r="8" fill="#28c76f"/>
  <text x="300" y="86" fill="#495057" font-size="14" font-family="Inter, Arial, sans-serif">MRR Projetado</text>
  <text x="72" y="268" fill="#adb5bd" font-size="12" font-family="Inter, Arial, sans-serif">JAN</text>
  <text x="152" y="268" fill="#adb5bd" font-size="12">MAR</text>
  <text x="232" y="268" fill="#adb5bd" font-size="12">MAI</text>
  <text x="312" y="268" fill="#adb5bd" font-size="12">JUL</text>
  <text x="392" y="268" fill="#adb5bd" font-size="12">SET</text>
  <text x="472" y="268" fill="#adb5bd" font-size="12">NOV</text>
</svg>
