<svg xmlns="http://www.w3.org/2000/svg" viewBox="0 0 512 512">
    <defs>
        <style>
            .cls-1 {
                fill: #a4a4a4;
            }
            .cls-2 {
                fill: #7367f0;
            }
        </style>
    </defs>
    <g id="Layer_2" data-name="Layer 2">
        <g id="Layer_1-2" data-name="Layer 1">
            <path class="cls-1" d="M256,391.32c-9.28,0-16.81-7.53-16.81-16.81V263.19c0-9.28,7.53-16.81,16.81-16.81s16.81,7.53,16.81,16.81V374.51C272.81,383.79,265.28,391.32,256,391.32Z"/>
            <circle class="cls-1" cx="256" cy="426.32" r="16.81"/>
            <path class="cls-2" d="M495.19,426.5H16.81C7.53,426.5,0,419,0,409.68V102.32C0,93,7.53,85.5,16.81,85.5H495.19c9.28,0,16.81,7.53,16.81,16.81V409.68C512,419,504.47,426.5,495.19,426.5ZM33.62,392.88H478.38V119.12H33.62Z"/>
            <path class="cls-2" d="M119.12,85.5H16.81a16.82,16.82,0,0,0-16.81,16.81V136H135.93V102.32A16.82,16.82,0,0,0,119.12,85.5Z"/>
            <path class="cls-2" d="M186.24,85.5h-33.62V136h33.62Z"/>
            <path class="cls-2" d="M253.36,85.5h-33.62V136h33.62Z"/>
        </g>
    </g>
</svg>